<?xml version="1.0" encoding="UTF-8"?><svg id="Layer_2" xmlns="http://www.w3.org/2000/svg" viewBox="0 0 272.76 94.15"><defs><style>.cls-1{stroke:#efefef;stroke-width:1.5px;}.cls-1,.cls-2{fill:none;stroke-linecap:round;stroke-linejoin:round;}.cls-3{fill:#99fff5;}.cls-2{stroke:#99fff5;stroke-width:2px;}.cls-4{fill:#efefef;}</style></defs><g id="Layer_4"><g><g><g><circle class="cls-3" cx="259.59" cy="69.58" r="11.17"/><path class="cls-4" d="m209.33.75c22.09,0,40,17.91,40,40s-17.91,40-40,40h-22.29c-.83,0-1.5-.67-1.5-1.5V2.25c0-.83.67-1.5,1.5-1.5h22.29Z"/><path class="cls-4" d="m176.36,2.25v77.01c0,.83-.67,1.5-1.5,1.5h-23.5c-8.3,0-16.06-4.12-20.71-11-7.73-11.44-4.72-26.98,6.72-34.71-3.84-3.76-6-8.91-6-14.29,0-11.05,8.95-20,20-20h23.5c.83,0,1.5.67,1.5,1.5Z"/><rect class="cls-4" x="94.52" y="83.39" width="31.85" height="10" rx=".75" ry=".75"/><path class="cls-4" d="m114.52,2.25v17.01c0,.83-.67,1.5-1.5,1.5h-27.75c-.42,0-.75.33-.75.75v8.5c0,.42.33.75.75.75h17.75c.83,0,1.49.67,1.49,1.5v17.01c0,.83-.67,1.5-1.49,1.5h-17.75c-.42,0-.75.33-.75.75v27.75c0,.83-.67,1.5-1.5,1.5h-17.01c-.83,0-1.5-.67-1.5-1.5V2.25c0-.83.67-1.5,1.5-1.5h47.01c.83,0,1.5.67,1.5,1.5Z"/><path class="cls-4" d="m29.09.75c14.5,0,26.25,11.75,26.25,26.25s-11.75,26.25-26.25,26.25h-7.84c-.28,0-.5.22-.5.5v25.5c0,.83-.67,1.5-1.49,1.5H2.25c-.83,0-1.5-.67-1.5-1.5V2.25c0-.83.67-1.5,1.5-1.5h26.84Z"/></g><g><line class="cls-1" x1="209.33" y1="80.75" x2="187.04" y2="80.75"/><line class="cls-1" x1="209.33" y1=".75" x2="187.04" y2=".75"/><path class="cls-1" d="m187.04.75c-.83,0-1.5.67-1.5,1.5"/><path class="cls-1" d="m209.33,80.75c22.09,0,40-17.91,40-40S231.42.75,209.33.75"/><circle class="cls-2" cx="259.59" cy="69.58" r="11.17"/><line class="cls-1" x1="185.54" y1="2.25" x2="185.54" y2="79.25"/><path class="cls-1" d="m185.54,79.25c0,.83.67,1.5,1.5,1.5"/><line class="cls-1" x1="64.52" y1="2.25" x2="64.52" y2="79.25"/><path class="cls-1" d="m64.52,79.25c0,.83.67,1.5,1.5,1.5"/><line class="cls-1" x1="66.01" y1="80.75" x2="83.02" y2="80.75"/><line class="cls-1" x1="84.52" y1="79.25" x2="84.52" y2="51.5"/><path class="cls-1" d="m85.27,50.75c-.42,0-.75.33-.75.75"/><path class="cls-1" d="m83.02,80.75c.83,0,1.5-.67,1.5-1.5"/><line class="cls-1" x1="85.27" y1="50.75" x2="103.02" y2="50.75"/><line class="cls-1" x1="104.52" y1="49.25" x2="104.52" y2="32.25"/><path class="cls-1" d="m103.02,50.75c.83,0,1.49-.67,1.49-1.5"/><line class="cls-1" x1="103.02" y1="30.75" x2="85.27" y2="30.75"/><path class="cls-1" d="m104.52,32.25c0-.83-.67-1.5-1.49-1.5"/><line class="cls-1" x1="84.52" y1="30" x2="84.52" y2="21.5"/><path class="cls-1" d="m84.52,30c0,.42.33.75.75.75"/><line class="cls-1" x1="85.27" y1="20.75" x2="113.02" y2="20.75"/><path class="cls-1" d="m85.27,20.75c-.42,0-.75.33-.75.75"/><path class="cls-1" d="m113.02,20.75c.83,0,1.5-.67,1.5-1.5"/><line class="cls-1" x1="114.52" y1="19.25" x2="114.52" y2="2.25"/><line class="cls-1" x1="113.02" y1=".75" x2="66.01" y2=".75"/><path class="cls-1" d="m114.52,2.25c0-.83-.67-1.5-1.5-1.5"/><path class="cls-1" d="m66.01.75c-.83,0-1.5.67-1.5,1.5"/><line class="cls-1" x1="95.27" y1="83.39" x2="125.61" y2="83.39"/><path class="cls-1" d="m95.27,83.39c-.41,0-.75.34-.75.75"/><line class="cls-1" x1="126.36" y1="84.14" x2="126.36" y2="92.65"/><path class="cls-1" d="m126.36,84.14c0-.41-.33-.75-.75-.75"/><line class="cls-1" x1="125.61" y1="93.4" x2="95.27" y2="93.4"/><path class="cls-1" d="m125.61,93.4c.42,0,.75-.34.75-.75"/><line class="cls-1" x1="94.52" y1="92.65" x2="94.52" y2="84.14"/><path class="cls-1" d="m94.52,92.65c0,.41.34.75.75.75"/><line class="cls-1" x1="29.09" y1=".75" x2="2.25" y2=".75"/><path class="cls-1" d="m2.25.75c-.83,0-1.5.67-1.5,1.5"/><line class="cls-1" x1=".75" y1="2.25" x2=".75" y2="79.25"/><path class="cls-1" d="m.75,79.25c0,.83.67,1.5,1.5,1.5"/><line class="cls-1" x1="2.25" y1="80.75" x2="19.26" y2="80.75"/><line class="cls-1" x1="20.75" y1="79.25" x2="20.75" y2="53.75"/><path class="cls-1" d="m19.26,80.75c.82,0,1.49-.67,1.49-1.5"/><line class="cls-1" x1="21.25" y1="53.25" x2="29.09" y2="53.25"/><path class="cls-1" d="m21.25,53.25c-.28,0-.5.22-.5.5"/><path class="cls-1" d="m29.09,53.25c14.5,0,26.25-11.75,26.25-26.25S43.59.75,29.09.75"/><line class="cls-1" x1="176.36" y1="79.25" x2="176.36" y2="2.25"/><path class="cls-1" d="m176.36,2.25c0-.83-.67-1.5-1.5-1.5"/><path class="cls-1" d="m174.87,80.75c.83,0,1.5-.67,1.5-1.5"/><line class="cls-1" x1="174.87" y1=".75" x2="151.36" y2=".75"/><path class="cls-1" d="m151.36.75c-11.05,0-20,8.96-20,20,0,5.37,2.16,10.52,6,14.29"/><path class="cls-1" d="m137.37,35.04c-11.44,7.73-14.45,23.27-6.72,34.71,4.65,6.88,12.41,11,20.71,11"/><line class="cls-1" x1="151.36" y1="80.75" x2="174.87" y2="80.75"/></g></g><path class="cls-1" d="m256.14,4.61c0-1.82,1.54-3.29,3.45-3.29s3.45,1.48,3.45,3.29-1.54,3.29-3.45,3.29-3.45-1.48-3.45-3.29h0Z"/><g><polygon class="cls-4" points="261.33 3.7 261.33 5.72 260.93 5.72 260.93 4.35 260.37 5.07 260.35 5.07 259.79 4.35 259.79 5.72 259.39 5.72 259.39 3.7 259.77 3.7 260.36 4.49 260.95 3.7 261.33 3.7"/><polygon class="cls-4" points="259.16 3.7 259.16 4.09 258.61 4.09 258.61 5.72 258.19 5.72 258.19 4.09 257.64 4.09 257.64 3.7 259.16 3.7"/></g></g></g></svg>