<?xml version="1.0" encoding="UTF-8"?><svg id="_0" xmlns="http://www.w3.org/2000/svg" viewBox="0 0 340.16 141.73"><defs><style>.cls-1{fill:#efefef;}</style></defs><g id="LWPOLYLINE"><path class="cls-1" d="m340.16,124.3v17.15c0,.16-.13.29-.28.29H.28c-.15,0-.28-.13-.28-.29v-17.15c0-.15.13-.28.28-.28h84.48c.15,0,.28-.13.28-.28v-17.15c0-.16-.13-.29-.28-.29H.28c-.15,0-.28-.12-.28-.28v-17.15c0-.16.13-.28.28-.28h27.78c.16,0,.29-.13.29-.29v-17.15c0-.15-.13-.28-.29-.28H.28c-.15,0-.28-.13-.28-.28v-34.87c0-.16.13-.28.28-.28h112.82c.16,0,.29-.13.29-.29v-17.15c0-.15-.13-.28-.29-.28h-56.12c-.16,0-.29-.13-.29-.28V.29c0-.16.13-.29.29-.29h84.47c.16,0,.28.13.28.29v17.15c0,.15.13.28.29.28h84.47c.16,0,.28.13.28.28v17.15c0,.16-.12.29-.28.29h-27.78c-.16,0-.28.12-.28.28v17.15c0,.16-.13.28-.29.28h-56.12c-.16,0-.29.13-.29.29v17.15c0,.15.13.28.29.28h112.82c.15,0,.28.13.28.28v17.15c0,.16-.13.29-.28.29h-112.82c-.16,0-.29.12-.29.28v17.15c0,.16.13.28.29.28h84.47c.16,0,.28.13.28.29v17.15c0,.15.13.28.29.28h112.82c.15,0,.28.13.28.28Z"/></g></svg>